<svg xmlns="http://www.w3.org/2000/svg" class="dibsIcon" role="img" data-tn="logo2020" viewBox="0 0 150 46.24417" aria-label="1stdibs" width="150"  height="46.24417" ><path d="M124.173 34.78v7.471a19.771 19.771 0 0011.787 3.993c7.792 0 14.04-5.925 14.04-12.817 0-5.732-3.027-9.08-8.115-12.365l-6.376-4.122c-3.543-2.319-6.505-4.445-6.505-8.502 0-3.929 2.813-6.119 6.956-6.119 4.767 0 8.562 4.773 11.27 7.536V3.22a19.185 19.185 0 00-10.433-3.22c-6.891-.064-12.301 4.057-12.301 10.563 0 5.603 3.284 8.308 8.372 11.464l5.861 3.606c3.735 2.319 6.505 5.153 6.505 9.79 0 4.96-3.8 8.309-8.566 8.309-4.83 0-7.278-3.35-12.495-8.953m-20.159 8.888c-2.77 0-4.959-.966-4.959-4.315V22.414h3.67c6.764 0 11.916 3.543 11.916 10.563 0 7.148-4.766 10.69-10.627 10.69m-2.77-41.219c5.54 0 10.306 2.706 10.306 8.63 0 6.12-3.864 9.34-10.112 9.34h-2.383V2.448zm7.15 18.807c5.28-1.546 8.437-5.088 8.437-10.176 0-6.827-5.732-10.563-15.586-10.563H90.682c2.126 1.352 3.22 2.641 3.22 5.99v33.04c0 3.349-1.094 4.702-3.22 6.054h12.238c10.69 0 17.389-4.573 17.389-12.623 0-6.12-4.38-10.24-11.915-11.722M73.937 45.6H85.53c-2.125-1.352-3.22-2.705-3.22-6.054V6.506c0-3.349 1.095-4.638 3.22-5.99H73.937c2.125 1.352 3.22 2.641 3.22 5.99v33.04c0 3.349-1.095 4.702-3.22 6.054M49.14 43.668c-3.285 0-5.861-.966-5.861-4.315V2.448h3.155c10.95 0 17.326 7.858 17.326 20.868 0 13.46-6.892 20.352-14.62 20.352M46.435.516H34.907c2.125 1.352 3.22 2.641 3.22 5.99v33.04c0 3.349-1.095 4.702-3.22 6.054h12.817c11.85 0 22.027-7.921 22.027-22.284 0-13.912-9.018-22.8-23.316-22.8M32.202 41.349a7.15 7.15 0 01-4.057 1.868c-2.19 0-3.027-1.352-3.027-4.25l-.064-8.953h6.054l.58-2.319h-6.634V23.51l-6.377 6.183v.322h3.285v10.82c0 3.156 1.417 5.024 4.057 5.024a7.238 7.238 0 006.312-4.315zM30.4 14.621c0-2.319-1.288-3.735-3.285-5.088L24.216 7.6c-1.288-.9-2.19-1.61-2.19-2.833a2.206 2.206 0 012.448-2.19c1.739 0 3.542 1.481 5.217 3.22v-3.67A10.378 10.378 0 0024.796.837c-3.092 0-5.54 1.868-5.54 4.96 0 2.253 1.353 3.606 3.028 4.7l3.22 2.19c1.61 1.096 2.19 1.869 2.19 3.028 0 1.417-.966 2.383-2.705 2.383-1.932 0-3.478-1.481-5.732-3.929v4.122a9.589 9.589 0 005.217 1.675c3.155 0 5.925-2.319 5.925-5.346M1.868 45.601h15.779c-3.092-1.353-5.281-2.706-5.281-7.343V6.699c0-2.834.129-5.346.258-6.376A26.463 26.463 0 010 5.025v.708c6.183 0 7.214 1.674 7.214 5.346v27.179c0 4.637-2.255 5.99-5.346 7.342" fill="#222222"></path></svg>